<svg width="25" height="25" viewBox="0 0 25 25" fill="none" xmlns="http://www.w3.org/2000/svg">
<path d="M12.5 0C5.59735 0 0 5.59637 0 12.5C0 18.023 3.58164 22.7085 8.54833 24.3614C9.17301 24.4771 9.40241 24.0902 9.40241 23.76C9.40241 23.462 9.39075 22.4772 9.38545 21.4328C5.90783 22.1889 5.17403 19.9579 5.17403 19.9579C4.60543 18.5131 3.78614 18.129 3.78614 18.129C2.65206 17.3531 3.87163 17.369 3.87163 17.369C5.12688 17.4572 5.78783 18.6572 5.78783 18.6572C6.9027 20.5682 8.71205 20.0157 9.42535 19.6964C9.53751 18.8884 9.86151 18.337 10.219 18.0249C7.44258 17.7087 4.52386 16.6369 4.52386 11.8472C4.52386 10.4826 5.01218 9.36741 5.81185 8.49205C5.68205 8.17716 5.25423 6.90583 5.93293 5.18403C5.93293 5.18403 6.9826 4.84806 9.37134 6.46536C10.3684 6.18831 11.4377 6.04949 12.5 6.04479C13.5624 6.04949 14.6325 6.18831 15.6315 6.46536C18.0174 4.84806 19.0656 5.18403 19.0656 5.18403C19.746 6.90583 19.3179 8.17716 19.1881 8.49205C19.9896 9.36741 20.4746 10.4825 20.4746 11.8472C20.4746 16.6482 17.5504 17.7055 14.7669 18.0149C15.2152 18.4028 15.6147 19.1635 15.6147 20.3297C15.6147 22.0022 15.6002 23.3483 15.6002 23.76C15.6002 24.0927 15.8252 24.4825 16.4589 24.3597C21.4229 22.705 25 18.0211 25 12.5C25 5.59637 19.4034 0 12.5 0Z" fill="#161614"/>
</svg>
