<svg width="20" height="70" viewBox="0 0 20 70" fill="none" xmlns="http://www.w3.org/2000/svg">
<path d="M14.4444 9.72222C14.4444 12.3302 12.3302 14.4444 9.72222 14.4444C7.11421 14.4444 5 12.3302 5 9.72222C5 7.11421 7.11421 5 9.72222 5C12.3302 5 14.4444 7.11421 14.4444 9.72222ZM14.4444 35C14.4444 37.608 12.3302 39.7222 9.72222 39.7222C7.11421 39.7222 5 37.608 5 35C5 32.392 7.11421 30.2778 9.72222 30.2778C12.3302 30.2778 14.4444 32.392 14.4444 35ZM14.4444 60.2778C14.4444 62.8858 12.3302 65 9.72222 65C7.11421 65 5 62.8858 5 60.2778C5 57.6698 7.11421 55.5556 9.72222 55.5556C12.3302 55.5556 14.4444 57.6698 14.4444 60.2778Z" stroke="#F1F1F1" stroke-width="10"/>
</svg>
