<svg width="300" height="300" viewBox="0 0 300 300" fill="none" xmlns="http://www.w3.org/2000/svg">
<path fill-rule="evenodd" clip-rule="evenodd" d="M150.271 208.97C182.689 208.97 208.97 182.689 208.97 150.27C208.97 117.852 182.689 91.5712 150.271 91.5712C117.852 91.5712 91.5713 117.852 91.5713 150.27C91.5713 182.689 117.852 208.97 150.271 208.97ZM150.271 197.23C176.205 197.23 197.23 176.205 197.23 150.27C197.23 124.335 176.205 103.311 150.271 103.311C124.336 103.311 103.311 124.335 103.311 150.27C103.311 176.205 124.336 197.23 150.271 197.23Z" fill="#646464"/>
<path d="M201.655 44.8136C196.03 41.9742 183.459 36.6129 183.459 36.6129C180.971 34.4627 180.314 29.412 179.574 23.7257C178.218 13.3087 176.584 0.758691 162.914 0H137.086C123.417 0.758691 121.783 13.3087 120.427 23.7257C119.686 29.412 119.029 34.4627 116.542 36.6129C116.542 36.6129 103.97 41.9742 98.3448 44.8136V58.1589C98.8356 57.875 99.3228 57.5925 99.8071 57.3118C108.892 52.0451 116.938 47.3805 127.694 45.1971C132.39 42.8504 133.794 32.8924 135.006 24.0456C135.939 17.2307 136.726 11.4844 138.709 11.7398H161.291C163.274 11.4844 164.061 17.2307 164.994 24.0456C166.206 32.8924 167.61 42.8504 172.306 45.1971C181.698 47.5464 191.108 52.0451 200.193 57.3118C200.677 57.5925 201.165 57.875 201.655 58.1589V44.8136Z" fill="#646464"/>
<path d="M201.655 255.186C196.03 258.026 183.459 263.387 183.459 263.387C180.971 265.537 180.314 270.588 179.573 276.274C178.217 286.691 176.584 299.241 162.914 300H137.086C123.416 299.241 121.783 286.691 120.426 276.274C119.686 270.588 119.029 265.537 116.541 263.387C116.541 263.387 103.97 258.026 98.3447 255.186V241.841C98.8354 242.125 99.3226 242.407 99.8069 242.688C108.892 247.955 116.938 252.62 127.694 254.803C132.39 257.15 133.794 267.108 135.006 275.954C135.939 282.769 136.726 288.516 138.709 288.26H161.291C163.274 288.516 164.061 282.769 164.994 275.954C166.206 267.108 167.61 257.15 172.306 254.803C181.698 252.454 191.108 247.955 200.193 242.688C200.677 242.407 201.165 242.125 201.655 241.841V255.186Z" fill="#646464"/>
<path d="M255.186 201.654C258.026 196.029 263.387 183.458 263.387 183.458C265.537 180.97 270.588 180.313 276.274 179.573C286.691 178.217 299.241 176.583 300 162.913V137.085C299.241 123.416 286.691 121.782 276.274 120.426C270.588 119.685 265.537 119.028 263.387 116.541C263.387 116.541 258.026 103.969 255.186 98.3439H241.841C242.125 98.8346 242.407 99.3218 242.688 99.8061C247.955 108.891 252.62 116.937 254.803 127.693C257.15 132.389 267.108 133.793 275.954 135.005C282.769 135.938 288.516 136.725 288.26 138.708V161.29C288.516 163.273 282.769 164.06 275.954 164.993C267.108 166.205 257.15 167.609 254.803 172.305C252.454 181.697 247.955 191.107 242.688 200.192C242.407 200.676 242.125 201.164 241.841 201.654H255.186Z" fill="#646464"/>
<path d="M44.8136 201.654C41.9742 196.029 36.6129 183.458 36.6129 183.458C34.4627 180.97 29.412 180.313 23.7257 179.573C13.3087 178.217 0.758691 176.583 0 162.913L1.13649e-06 137.085C0.758693 123.416 13.3087 121.782 23.7257 120.426C29.412 119.685 34.4627 119.028 36.6129 116.541C36.6129 116.541 41.9742 103.969 44.8136 98.3439H58.1589C57.875 98.8346 57.5926 99.3218 57.3118 99.8061C52.0451 108.891 47.3805 116.937 45.1971 127.693C42.8504 132.389 32.8924 133.793 24.0456 135.005C17.2307 135.938 11.4844 136.725 11.7398 138.708L11.7398 161.29C11.4844 163.273 17.2307 164.06 24.0456 164.993C32.8924 166.205 42.8504 167.609 45.1971 172.305C47.5464 181.697 52.0451 191.107 57.3118 200.192C57.5925 200.676 57.875 201.164 58.1589 201.654H44.8136Z" fill="#646464"/>
<path d="M260.904 112.148C258.934 106.163 253.836 93.4825 253.836 93.4825C253.597 90.2033 256.704 86.167 260.201 81.6227C266.608 73.2979 274.327 63.2684 265.197 53.0659L246.935 34.803C236.732 25.6735 226.703 33.3925 218.378 39.7995C213.834 43.2969 209.797 46.4033 206.518 46.165C206.518 46.165 193.838 41.0666 187.852 39.0967L178.416 48.5332C178.963 48.6795 179.508 48.8243 180.049 48.9682C190.197 51.6681 199.185 54.0593 208.334 60.1212C213.314 61.7823 221.348 55.7338 228.461 50.3348C233.939 46.1758 238.559 42.6689 239.781 44.2519L255.749 60.2197C257.332 61.4415 253.825 66.0611 249.666 71.5399C244.267 78.6521 238.218 86.6863 239.879 91.6662C244.859 99.9684 248.332 109.804 251.032 119.952C251.176 120.493 251.321 121.037 251.467 121.585L260.904 112.148Z" fill="#646464"/>
<path d="M112.148 260.905C106.163 258.935 93.4826 253.837 93.4826 253.837C90.2034 253.598 86.1671 256.705 81.6228 260.202C73.298 266.609 63.2686 274.328 53.0661 265.199L34.8032 246.936C25.6736 236.733 33.3926 226.704 39.7996 218.379C43.297 213.835 46.4034 209.798 46.1651 206.519C46.1651 206.519 41.0668 193.839 39.0968 187.853L48.5334 178.417C48.6796 178.965 48.8244 179.509 48.9683 180.05C51.6682 190.198 54.0595 199.186 60.1213 208.336C61.7825 213.315 55.7339 221.35 50.3349 228.462C46.1759 233.941 42.6691 238.56 44.252 239.782L60.2198 255.75C61.4416 257.333 66.0612 253.826 71.54 249.667C78.6522 244.268 86.6864 238.219 91.6663 239.881C99.9686 244.86 109.804 248.334 119.952 251.034C120.493 251.177 121.037 251.322 121.585 251.469L112.148 260.905Z" fill="#646464"/>
<path d="M187.854 260.904C193.839 258.934 206.52 253.835 206.52 253.835C209.799 253.597 213.835 256.703 218.38 260.201C226.704 266.608 236.734 274.327 246.936 265.197L265.199 246.934C274.329 236.732 266.61 226.702 260.203 218.378C256.705 213.833 253.599 209.797 253.837 206.518C253.837 206.518 258.936 193.837 260.906 187.852L251.469 178.415C251.323 178.963 251.178 179.507 251.034 180.048C248.334 190.196 245.943 199.185 239.881 208.334C238.22 213.314 244.269 221.348 249.668 228.46C253.827 233.939 257.333 238.559 255.75 239.781L239.783 255.748C238.561 257.331 233.941 253.825 228.462 249.665C221.35 244.267 213.316 238.218 208.336 239.879C200.034 244.859 190.198 248.332 180.05 251.032C179.509 251.176 178.965 251.321 178.417 251.467L187.854 260.904Z" fill="#646464"/>
<path d="M39.0962 112.147C41.0662 106.162 46.1645 93.4815 46.1645 93.4815C46.4028 90.2023 43.2964 86.166 39.799 81.6217C33.392 73.2969 25.673 63.2675 34.8026 53.065L53.0655 34.8021C63.268 25.6725 73.2974 33.3915 81.6222 39.7985C86.1665 43.2959 90.2028 46.4023 93.482 46.164C93.482 46.164 106.162 41.0657 112.148 39.0957L121.584 48.5323C121.037 48.6785 120.492 48.8233 119.951 48.9673C109.803 51.6671 100.815 54.0584 91.6657 60.1202C86.6858 61.7814 78.6516 55.7328 71.5394 50.3338C66.0607 46.1748 61.441 42.668 60.2192 44.251L44.2514 60.2188C42.6685 61.4405 46.1753 66.0601 50.3343 71.5389C55.7333 78.6511 61.7819 86.6853 60.1207 91.6652C55.1408 99.9675 51.6676 109.803 48.9677 119.951C48.8238 120.492 48.679 121.036 48.5327 121.584L39.0962 112.147Z" fill="#646464"/>
</svg>
